<?xml version="1.0" standalone="no"?><!DOCTYPE svg PUBLIC "-//W3C//DTD SVG 1.1//EN" "http://www.w3.org/Graphics/SVG/1.1/DTD/svg11.dtd"><svg t="1715075767298" class="icon" viewBox="0 0 1024 1024" version="1.1" xmlns="http://www.w3.org/2000/svg" p-id="1495" data-spm-anchor-id="a313x.search_index.0.i1.3f323a81WoWHZe" width="256" height="256" xmlns:xlink="http://www.w3.org/1999/xlink"><path d="M824.39984 503.072c110.816 102.88 165.728 204.8 130.976 264.928-33.728 58.432-144 63.232-282.464 22.752C638.67184 931.2 579.43984 1024 511.98384 1024c-70.176 0-131.456-100.64-164.896-250.592-134.816 38.048-241.504 32.288-274.624-24.8-32.512-56.064 13.6-148.512 110.4-243.808C83.47184 407.52 35.66384 313.024 68.59184 256c33.728-58.432 144-63.232 282.464-22.72C385.29584 92.96 444.52784 0 511.98384 0c65.408 0 123.04 87.552 157.664 220.8 138.176-40.288 248.16-35.52 281.856 22.592 34.304 59.168-19.104 158.848-127.104 259.68zM383.98384 672c12.64 58.656 23.168 99.712 32.512 131.68 0.576 3.744 1.088 7.424 1.504 10.752 23.36 89.12 56.704 145.568 93.984 145.568 42.976 0 80.896-74.336 104.096-187.968a1172.736 1172.736 0 0 1-93.152-39.072c-2.304-0.384-36.896-11.2-36.96-10.848a933.408 933.408 0 0 1-66.304-39.072l0.704-0.32c-13.408-8.384-27.2-17.184-41.6-26.304a80.384 80.384 0 0 1 5.216 15.584z m-256.576 45.024c21.248 36.608 102.944 32.8 210.912-2.624a3690.88 3690.88 0 0 1-15.616-160.416A54.08 54.08 0 0 0 319.98384 544l2.048 1.12a1833.632 1833.632 0 0 1-4.256-74.624c-136.864 99.488-217.696 199.392-190.368 246.528zM124.01584 288c-20.8 36 21.12 102.72 102.4 176.704a1226.624 1226.624 0 0 1 189.92-133.504c3.392-1.952 6.752-3.68 10.144-5.6C274.57584 259.744 150.89584 241.408 124.01584 288z m489.184-48.672C589.99984 132.768 553.32784 64 511.98384 64c-42.944 0-80.896 74.336-104.096 187.968 1.568 0.576 3.2 1.28 4.736 1.856a12.448 12.448 0 0 0 3.36 2.176c24.448 9.12 45.632 17.6 65.056 25.6 5.344 2.336 10.592 4.48 16 6.912h0.288a416.32 416.32 0 0 1 132.48 76.224A830.592 830.592 0 0 0 607.98384 224c1.76 5.856 3.488 10.656 5.216 15.328z m21.696 190.464c-34.72-19.2-74.688-35.2-140-69.312-15.456 8.192-31.008 16.64-46.624 25.6-22.4 12.8-43.648 25.984-64.32 39.232a1362.528 1362.528 0 0 0 5.216 158.624c34.976 20.448 75.936 44.448 109.024 63.136a1396.224 1396.224 0 0 0 142.048-80.576c0.32-25.696-1.472-78.784-5.344-136.704z m-27.328 231.04c-14.112 8.096-28.192 15.776-42.24 23.2 166.4 77.472 305.856 101.792 334.624 51.968 22.4-38.656-27.392-112.672-120.896-193.12a1254.048 1254.048 0 0 1-171.488 117.952z m288.992-385.856c-21.344-36.8-103.968-32.512-212.864 3.52A994.56 994.56 0 0 1 703.98384 384a1085.728 1085.728 0 0 1 2.624 137.184c136.608-99.36 217.248-199.104 189.952-246.208zM511.98384 576a64 64 0 1 1 64-64 64 64 0 0 1-64 64z" fill="#1296db" p-id="1496"></path></svg>