<?xml version="1.0" standalone="no"?><!DOCTYPE svg PUBLIC "-//W3C//DTD SVG 1.1//EN" "http://www.w3.org/Graphics/SVG/1.1/DTD/svg11.dtd"><svg t="1718009837689" class="icon" viewBox="0 0 1024 1024" version="1.1" xmlns="http://www.w3.org/2000/svg" p-id="9511" xmlns:xlink="http://www.w3.org/1999/xlink" width="32" height="32"><path d="M512 115.2C294.4 115.2 115.2 294.4 115.2 512s179.2 396.8 396.8 396.8 396.8-179.2 396.8-396.8S729.6 115.2 512 115.2z m0 723.2c-179.2 0-326.4-147.2-326.4-326.4S332.8 185.6 512 185.6s326.4 147.2 326.4 326.4-147.2 326.4-326.4 326.4z" fill="#1C78FA" p-id="9512"></path><path d="M556.8 294.4c-25.6 0-44.8 25.6-44.8 51.2s19.2 44.8 44.8 44.8 44.8-19.2 44.8-44.8c0-25.6-19.2-51.2-44.8-51.2zM537.6 652.8c0-12.8 6.4-32 6.4-44.8 6.4-19.2 6.4-32 12.8-44.8 12.8-44.8 12.8-51.2 12.8-64v-19.2c6.4-32-25.6-51.2-64-51.2-25.6 0-57.6 12.8-83.2 25.6l-6.4 19.2c19.2-6.4 44.8-12.8 57.6 0 12.8 12.8 6.4 44.8 0 64L448 620.8c-6.4 32-12.8 64 12.8 83.2 12.8 12.8 32 19.2 51.2 19.2 25.6 0 38.4-6.4 76.8-19.2h6.4l6.4-25.6c-19.2 6.4-64 19.2-64-25.6z" fill="#1C78FA" p-id="9513"></path></svg>